<svg width="23" height="23" viewBox="0 0 23 23" fill="none" xmlns="http://www.w3.org/2000/svg">
<path d="M14.25 16.084C13.5171 16.6545 12.5544 17.0007 11.5 17.0007C10.4457 17.0007 9.48289 16.6545 8.75 16.084" stroke="#070707" stroke-width="1.5"/>
<path d="M2.65609 12.613C2.33249 10.5072 2.17069 9.45431 2.56881 8.52092C2.96692 7.58751 3.85018 6.94888 5.6167 5.67162L6.93656 4.71732C9.13408 3.12843 10.2328 2.33398 11.5007 2.33398C12.7685 2.33398 13.8672 3.12843 16.0647 4.71732L17.3846 5.67162C19.1512 6.94888 20.0344 7.58751 20.4325 8.52092C20.8306 9.45431 20.6688 10.5072 20.3452 12.613L20.0693 14.4087C19.6105 17.3938 19.3811 18.8864 18.3106 19.7769C17.24 20.6673 15.6749 20.6673 12.5446 20.6673H10.4568C7.32645 20.6673 5.76132 20.6673 4.69073 19.7769C3.62015 18.8864 3.39078 17.3938 2.93205 14.4087L2.65609 12.613Z" stroke="#070707" stroke-width="1.5"/>
</svg>
